<mxfile host="drawio-plugin" modified="2023-02-17T12:50:29.470Z" agent="5.0 (Macintosh; Intel Mac OS X 10_15_7) AppleWebKit/537.36 (KHTML, like Gecko) Chrome/104.0.5112.102 Safari/537.36" etag="JvK50W3YwopquT4KD0g7" version="20.5.3" type="embed"><diagram id="23iRSUPoRavnBvh4doch" name="Page-1"><mxGraphModel dx="2911" dy="1076" grid="1" gridSize="10" guides="1" tooltips="1" connect="1" arrows="1" fold="1" page="1" pageScale="1" pageWidth="827" pageHeight="1169" math="0" shadow="0"><root><mxCell id="0"/><mxCell id="1" parent="0"/><mxCell id="2" value="Ingame" style="strokeWidth=1;shadow=0;dashed=0;align=center;html=1;shape=mxgraph.mockup.containers.window;align=left;verticalAlign=top;spacingLeft=8;strokeColor2=#008cff;strokeColor3=#c4c4c4;fontColor=#666666;mainText=;fontSize=17;labelBackgroundColor=none;" vertex="1" parent="1"><mxGeometry x="-26" y="140" width="880" height="550" as="geometry"/></mxCell><mxCell id="3" value="Bot 1" style="text;html=1;strokeColor=none;fillColor=none;align=center;verticalAlign=middle;whiteSpace=wrap;rounded=0;" vertex="1" parent="1"><mxGeometry x="54" y="200" width="60" height="30" as="geometry"/></mxCell><mxCell id="4" value="Bot 2" style="text;html=1;strokeColor=none;fillColor=none;align=center;verticalAlign=middle;whiteSpace=wrap;rounded=0;" vertex="1" parent="1"><mxGeometry x="384" y="200" width="60" height="30" as="geometry"/></mxCell><mxCell id="5" value="Bot 3" style="text;html=1;strokeColor=none;fillColor=none;align=center;verticalAlign=middle;whiteSpace=wrap;rounded=0;" vertex="1" parent="1"><mxGeometry x="714" y="200" width="60" height="30" as="geometry"/></mxCell><mxCell id="6" value="" style="rounded=1;whiteSpace=wrap;html=1;fillColor=default;strokeColor=#b85450;fillStyle=dots;" vertex="1" parent="1"><mxGeometry x="-21" y="240" width="210" height="50" as="geometry"/></mxCell><mxCell id="7" value="" style="rounded=1;whiteSpace=wrap;html=1;fillColor=#dae8fc;strokeColor=#6c8ebf;fillStyle=dots;" vertex="1" parent="1"><mxGeometry x="309" y="240" width="210" height="50" as="geometry"/></mxCell><mxCell id="8" value="" style="rounded=1;whiteSpace=wrap;html=1;" vertex="1" parent="1"><mxGeometry x="639" y="240" width="210" height="50" as="geometry"/></mxCell><mxCell id="9" value="" style="rounded=1;whiteSpace=wrap;html=1;" vertex="1" parent="1"><mxGeometry x="-16" y="245" width="20" height="40" as="geometry"/></mxCell><mxCell id="10" value="" style="rounded=1;whiteSpace=wrap;html=1;" vertex="1" parent="1"><mxGeometry x="14" y="245" width="20" height="40" as="geometry"/></mxCell><mxCell id="11" value="" style="rounded=1;whiteSpace=wrap;html=1;" vertex="1" parent="1"><mxGeometry x="44" y="245" width="20" height="40" as="geometry"/></mxCell><mxCell id="12" value="" style="rounded=1;whiteSpace=wrap;html=1;" vertex="1" parent="1"><mxGeometry x="74" y="245" width="20" height="40" as="geometry"/></mxCell><mxCell id="13" value="" style="rounded=1;whiteSpace=wrap;html=1;" vertex="1" parent="1"><mxGeometry x="314" y="245" width="20" height="40" as="geometry"/></mxCell><mxCell id="14" value="" style="rounded=1;whiteSpace=wrap;html=1;" vertex="1" parent="1"><mxGeometry x="344" y="245" width="20" height="40" as="geometry"/></mxCell><mxCell id="15" value="" style="rounded=1;whiteSpace=wrap;html=1;" vertex="1" parent="1"><mxGeometry x="374" y="245" width="20" height="40" as="geometry"/></mxCell><mxCell id="16" value="" style="rounded=1;whiteSpace=wrap;html=1;" vertex="1" parent="1"><mxGeometry x="644" y="245" width="20" height="40" as="geometry"/></mxCell><mxCell id="17" value="" style="rounded=1;whiteSpace=wrap;html=1;" vertex="1" parent="1"><mxGeometry x="674" y="245" width="20" height="40" as="geometry"/></mxCell><mxCell id="18" value="" style="rounded=1;whiteSpace=wrap;html=1;" vertex="1" parent="1"><mxGeometry x="704" y="245" width="20" height="40" as="geometry"/></mxCell><mxCell id="19" value="" style="rounded=1;whiteSpace=wrap;html=1;" vertex="1" parent="1"><mxGeometry x="54" y="570" width="580" height="100" as="geometry"/></mxCell><mxCell id="22" value="" style="rounded=1;whiteSpace=wrap;html=1;" vertex="1" parent="1"><mxGeometry x="59" y="577.5" width="55" height="85" as="geometry"/></mxCell><mxCell id="23" value="" style="rounded=1;whiteSpace=wrap;html=1;" vertex="1" parent="1"><mxGeometry x="124" y="577.5" width="55" height="85" as="geometry"/></mxCell><mxCell id="24" value="" style="rounded=1;whiteSpace=wrap;html=1;" vertex="1" parent="1"><mxGeometry x="189" y="577.5" width="55" height="85" as="geometry"/></mxCell><mxCell id="25" value="" style="rounded=1;whiteSpace=wrap;html=1;" vertex="1" parent="1"><mxGeometry x="254" y="577.5" width="55" height="85" as="geometry"/></mxCell><mxCell id="26" value="" style="rounded=1;whiteSpace=wrap;html=1;" vertex="1" parent="1"><mxGeometry x="347.75" y="390" width="55" height="85" as="geometry"/></mxCell><mxCell id="27" value="" style="rounded=1;whiteSpace=wrap;html=1;" vertex="1" parent="1"><mxGeometry x="425.25" y="390" width="55" height="85" as="geometry"/></mxCell><mxCell id="28" value="" style="rounded=1;whiteSpace=wrap;html=1;fillColor=#f8cecc;strokeColor=#b85450;" vertex="1" parent="1"><mxGeometry x="734" y="582.5" width="30" height="35" as="geometry"/></mxCell><mxCell id="29" value="" style="rounded=1;whiteSpace=wrap;html=1;fillColor=#ffe6cc;strokeColor=#d79b00;" vertex="1" parent="1"><mxGeometry x="774" y="582.5" width="30" height="35" as="geometry"/></mxCell><mxCell id="30" value="" style="rounded=1;whiteSpace=wrap;html=1;fillColor=#dae8fc;strokeColor=#6c8ebf;" vertex="1" parent="1"><mxGeometry x="774" y="622.5" width="30" height="35" as="geometry"/></mxCell><mxCell id="31" value="" style="rounded=1;whiteSpace=wrap;html=1;fillColor=#d5e8d4;strokeColor=#82b366;" vertex="1" parent="1"><mxGeometry x="734" y="622.5" width="30" height="35" as="geometry"/></mxCell></root></mxGraphModel></diagram></mxfile>